<?xml version="1.0" encoding="UTF-8" standalone="no"?>
<!-- Created with Inkscape (http://www.inkscape.org/) -->

<svg
   xmlns:dc="http://purl.org/dc/elements/1.1/"
   xmlns:cc="http://creativecommons.org/ns#"
   xmlns:rdf="http://www.w3.org/1999/02/22-rdf-syntax-ns#"
   xmlns:svg="http://www.w3.org/2000/svg"
   xmlns="http://www.w3.org/2000/svg"
   xmlns:sodipodi="http://sodipodi.sourceforge.net/DTD/sodipodi-0.dtd"
   xmlns:inkscape="http://www.inkscape.org/namespaces/inkscape"
   width="397.93332mm"
   height="397.93384mm"
   viewBox="0 0 397.93332 397.93384"
   version="1.1"
   id="svg4773"
   inkscape:version="0.92.4 (5da689c313, 2019-01-14)"
   sodipodi:docname="etsy.svg">
  <defs
     id="defs4767" />
  <sodipodi:namedview
     id="base"
     pagecolor="#ffffff"
     bordercolor="#666666"
     borderopacity="1.0"
     inkscape:pageopacity="0.0"
     inkscape:pageshadow="2"
     inkscape:zoom="0.35"
     inkscape:cx="134.85658"
     inkscape:cy="983.42949"
     inkscape:document-units="mm"
     inkscape:current-layer="Layer_x0020_1"
     showgrid="false"
     fit-margin-top="0"
     fit-margin-left="0"
     fit-margin-right="0"
     fit-margin-bottom="0"
     inkscape:window-width="1920"
     inkscape:window-height="1023"
     inkscape:window-x="0"
     inkscape:window-y="0"
     inkscape:window-maximized="1" />
  <metadata
     id="metadata4770">
    <rdf:RDF>
      <cc:Work
         rdf:about="">
        <dc:format>image/svg+xml</dc:format>
        <dc:type
           rdf:resource="http://purl.org/dc/dcmitype/StillImage" />
        <dc:title></dc:title>
      </cc:Work>
    </rdf:RDF>
  </metadata>
  <g
     inkscape:label="Calque 1"
     inkscape:groupmode="layer"
     id="layer1"
     transform="translate(128.66295,-11.098547)">
    <g
       transform="matrix(0.26458333,0,0,0.26458333,-200.62976,-60.867721)"
       style="clip-rule:evenodd;fill-rule:evenodd;image-rendering:optimizeQuality;shape-rendering:geometricPrecision;text-rendering:geometricPrecision"
       id="Layer_x0020_1">
      <path
         d="m -486.28516,41.947266 v 16 1472.001934 16 h 16 1471.99996 16 v -16 -1472.001934 -16 h -16 -1471.99996 z m 331.01563,245.605464 h 16.00195 755.89649 l 15.16797,0.002 0.76953,15.24804 10.86328,214.77149 0.8457,16.75 h -16.78516 -28.38867 -13.15039 l -2.53711,-12.9375 c -4.9334,-25.1528 -10.09868,-46.29643 -15.51758,-63.45313 -5.1756,-16.3878 -10.43734,-28.75956 -15.80664,-37.13476 -5.2784,-8.2347 -11.74868,-15.50456 -19.45898,-21.77149 -7.8461,-6.37794 -17.09146,-11.82013 -27.78516,-16.29296 l 0.01,-0.0156 c -8.3244,-3.0059 -20.23614,-5.3465 -35.71094,-6.99414 -16.1893,-1.72441 -36.2395,-2.60156 -60.125,-2.60156 H 155.9375 v 355.57617 h 199.51172 c 26.9847,0 49.14708,-1.95387 66.51758,-5.85742 15.9898,-3.5952 27.62849,-8.66104 34.93359,-15.19727 l 0.0625,-0.0645 c 10.4859,-9.2528 18.74431,-22.37457 24.81641,-39.38477 6.476,-18.1371 10.38169,-40.3807 11.77539,-66.75 l 0.80273,-15.1875 h 15.13672 26.66016 16 v 16 341.41407 16 h -16 -26.66016 -13.88086 l -1.93164,-13.8125 c -3.267,-23.3504 -6.53962,-42.32566 -9.76172,-56.93946 h -0.0625 c -3.1358,-14.2287 -6.07584,-24.14855 -8.77344,-29.78125 l -0.0215,0.0117 c -3.47,-6.7405 -8.10681,-12.81265 -13.87891,-18.18555 -5.9268,-5.5146 -13.14842,-10.35629 -21.64062,-14.49609 -8.576,-4.1811 -19.65532,-7.37132 -33.22852,-9.54102 -14.1106,-2.2571 -31.06523,-3.39843 -50.86523,-3.39843 H 155.9375 v 307.3906 c 0,21.5493 0.47332,38.6381 1.38867,51.2735 0.83386,11.5205 1.89556,18.8831 3.16406,22.0957 l -0.0469,0.017 c 1.23544,2.8358 2.91071,5.4301 5.03906,7.7911 2.27008,2.5193 5.09724,4.7738 8.5,6.7793 l -0.0215,0.035 c 3.0413,1.6216 8.13058,2.9582 15.21484,4.0059 8.3551,1.2354 18.95488,1.8554 31.73438,1.8554 h 166.38281 c 27.5291,0 50.98504,-0.8846 70.24414,-2.7129 18.8823,-1.7929 34.13496,-4.4878 45.66016,-8.1386 h 0.1875 c 11.1827,-3.3969 22.17695,-8.496 33.03125,-15.3145 11.0375,-6.9343 21.90082,-15.6426 32.64062,-26.1426 l -0.0293,-0.029 c 14.3882,-14.3882 28.88553,-32.3604 43.48633,-53.8789 14.7685,-21.7654 29.92936,-47.5994 45.47266,-77.4648 l 4.48828,-8.625 h 9.69922 28.88281 22.39844 l -7.27344,21.1875 -84.42773,245.875 -3.71289,10.8145 h -11.41211 -755.89649 -16.00195 v -16 -26.6622 -16 h 16.00195 34.80664 c 10.126702,0 20.017771,-1.2436 29.642581,-3.705 9.8622,-2.5205 19.380517,-6.2466 28.523437,-11.1446 l 0.4375,-0.25 c 5.94099,-2.9221 10.844456,-6.5472 14.753906,-10.8476 3.81024,-4.1917 6.76491,-9.1917 8.90625,-14.9649 l 0.04102,0.016 c 2.19094,-6.4406 3.903283,-16.8191 5.132812,-31.127 1.31457,-15.313 1.97461,-34.688 1.97461,-58.1211 V 474.38281 c 0,-30.4229 -1.462126,-54.69116 -4.410156,-72.82226 -2.63502,-16.2 -6.100357,-26.7875 -10.404297,-31.78711 -6.7394,-7.42909 -15.930513,-13.08688 -27.570313,-16.9668 -12.6898,-4.22835 -28.367044,-6.3457 -47.02735,-6.3457 h -34.80664 -16.00195 v -16 -26.90821 z"
         transform="translate(758.28572,230.05123)"
         id="polygon6"
         inkscape:connector-curvature="0"
         style="fill:#ffffff" />
    </g>
  </g>
</svg>
