<?xml version="1.0" encoding="UTF-8" standalone="no"?>
<!-- Created with Inkscape (http://www.inkscape.org/) -->

<svg
   xmlns:dc="http://purl.org/dc/elements/1.1/"
   xmlns:cc="http://creativecommons.org/ns#"
   xmlns:rdf="http://www.w3.org/1999/02/22-rdf-syntax-ns#"
   xmlns:svg="http://www.w3.org/2000/svg"
   xmlns="http://www.w3.org/2000/svg"
   xmlns:sodipodi="http://sodipodi.sourceforge.net/DTD/sodipodi-0.dtd"
   xmlns:inkscape="http://www.inkscape.org/namespaces/inkscape"
   width="129"
   height="129"
   viewBox="0 0 34.13125 34.131249"
   version="1.1"
   id="svg8476"
   inkscape:version="0.92.4 (5da689c313, 2019-01-14)"
   sodipodi:docname="fetlife.svg">
  <defs
     id="defs8470" />
  <sodipodi:namedview
     id="base"
     pagecolor="#ffffff"
     bordercolor="#666666"
     borderopacity="1.0"
     inkscape:pageopacity="0.0"
     inkscape:pageshadow="2"
     inkscape:zoom="2.8"
     inkscape:cx="73.982727"
     inkscape:cy="60.552228"
     inkscape:document-units="mm"
     inkscape:current-layer="layer1"
     showgrid="false"
     fit-margin-top="0"
     fit-margin-left="0"
     fit-margin-right="0"
     fit-margin-bottom="0"
     units="px"
     inkscape:window-width="1920"
     inkscape:window-height="1023"
     inkscape:window-x="0"
     inkscape:window-y="0"
     inkscape:window-maximized="1" />
  <metadata
     id="metadata8473">
    <rdf:RDF>
      <cc:Work
         rdf:about="">
        <dc:format>image/svg+xml</dc:format>
        <dc:type
           rdf:resource="http://purl.org/dc/dcmitype/StillImage" />
        <dc:title></dc:title>
      </cc:Work>
    </rdf:RDF>
  </metadata>
  <g
     inkscape:label="Calque 1"
     inkscape:groupmode="layer"
     id="layer1"
     transform="translate(81.454044,-150.54018)">
    <path
       inkscape:connector-curvature="0"
       id="path36"
       style="fill:#ffffff;fill-opacity:1;fill-rule:nonzero;stroke:none;stroke-width:0.03307291"
       d="m -49.502965,166.21274 c -0.18269,-1.08198 -0.52582,-2.09005 -1.17359,-3.07992 0.62776,-3.50133 0.22662,-4.94271 -0.14675,-6.59983 -0.37283,-1.65742 -1.82003,-4.14357 -3.02977,-5.86647 -0.0491,1.22217 0.0958,2.2982 -0.0499,3.66646 -0.14572,1.36839 -1.19178,4.05467 -2.21291,5.51993 -3.66839,-0.70435 -7.71826,2.75412 -8.27263,3.41065 -0.55411,-0.65653 -4.60425,-4.115 -8.27237,-3.41065 -1.02112,-1.46526 -2.06705,-4.15154 -2.21291,-5.51993 -0.14575,-1.36826 -9.2e-4,-2.44429 -0.0499,-3.66646 -1.21001,1.7229 -2.65695,4.20905 -3.03005,5.86647 -0.37311,1.65712 -0.77437,3.0985 -0.14676,6.59983 -0.64764,0.98987 -0.99077,1.99794 -1.17332,3.07992 -0.88069,8.35891 11.48495,13.92965 14.88528,18.33235 3.40042,-4.4027 15.76635,-9.97344 14.88552,-18.33235" />
  </g>
</svg>
