<?xml version="1.0" encoding="UTF-8" standalone="no"?>
<!-- Generator: Adobe Illustrator 18.0.0, SVG Export Plug-In . SVG Version: 6.00 Build 0)  -->

<svg
   xmlns:dc="http://purl.org/dc/elements/1.1/"
   xmlns:cc="http://creativecommons.org/ns#"
   xmlns:rdf="http://www.w3.org/1999/02/22-rdf-syntax-ns#"
   xmlns:svg="http://www.w3.org/2000/svg"
   xmlns="http://www.w3.org/2000/svg"
   xmlns:sodipodi="http://sodipodi.sourceforge.net/DTD/sodipodi-0.dtd"
   xmlns:inkscape="http://www.inkscape.org/namespaces/inkscape"
   version="1.1"
   id="Capa_1"
   x="0px"
   y="0px"
   viewBox="0 0 415.799 415.799"
   style="enable-background:new 0 0 415.799 415.799;"
   xml:space="preserve"
   sodipodi:docname="loving-folder-svgrepo-com.svg"
   inkscape:version="0.92.4 (5da689c313, 2019-01-14)"><metadata
   id="metadata39"><rdf:RDF><cc:Work
       rdf:about=""><dc:format>image/svg+xml</dc:format><dc:type
         rdf:resource="http://purl.org/dc/dcmitype/StillImage" /></cc:Work></rdf:RDF></metadata><defs
   id="defs37" /><sodipodi:namedview
   pagecolor="#ffffff"
   bordercolor="#666666"
   borderopacity="1"
   objecttolerance="10"
   gridtolerance="10"
   guidetolerance="10"
   inkscape:pageopacity="0"
   inkscape:pageshadow="2"
   inkscape:window-width="1397"
   inkscape:window-height="728"
   id="namedview35"
   showgrid="false"
   inkscape:zoom="0.56758192"
   inkscape:cx="207.89951"
   inkscape:cy="207.89951"
   inkscape:window-x="296"
   inkscape:window-y="291"
   inkscape:window-maximized="0"
   inkscape:current-layer="Capa_1" />
<path
   d="M381.773,212.776l7.955-53.693c1.073-7.238-1.059-14.585-5.839-20.126c-4.479-5.191-10.868-8.314-17.674-8.686V77.8  c0-25.563-20.797-46.36-46.361-46.36h-75.278c-25.052,0-38.351,10.578-48.062,18.303c-7.807,6.208-12.518,9.956-22.626,9.956H65.099  c-22.78,0-41.313,18.061-41.313,40.263v30.311c-6.806,0.372-13.196,3.495-17.674,8.686c-4.78,5.541-6.912,12.888-5.839,20.125  l30.194,203.802c1.828,12.338,12.417,21.475,24.89,21.475h279.286c12.473,0,23.063-9.137,24.891-21.474l0.318-2.145  c2.399-1.755,4.821-3.596,7.241-5.528c40.257-32.144,48.707-63.401,48.707-83.962C415.799,246.237,402.076,224.382,381.773,212.776z   M54.081,130.233V99.961c0-6.239,5.602-9.967,11.019-9.967h108.788c20.687,0,32.219-9.172,41.484-16.543  c8.552-6.802,14.732-11.716,29.204-11.716h75.278c8.858,0,16.066,7.206,16.066,16.065v52.434H54.081z M350.694,335.677  c-12.162,9.71-24.478,16.991-32.667,21.39c-1.984,1.065-4.17,1.598-6.355,1.598c-2.198,0-4.396-0.539-6.389-1.617  c-8.94-4.835-26.206-15.014-41.388-28.855c-20.296-18.502-30.586-37.661-30.586-56.942c0-23.336,18.986-42.322,42.322-42.322  c13.473,0,26.263,6.51,34.215,17.415l1.81,2.48l1.808-2.479c7.953-10.905,20.743-17.416,34.216-17.416  c23.336,0,42.322,18.986,42.322,42.322C390,292.867,376.408,315.145,350.694,335.677z"
   id="path2"
   style="fill:#ffffff" />
<g
   id="g4">
</g>
<g
   id="g6">
</g>
<g
   id="g8">
</g>
<g
   id="g10">
</g>
<g
   id="g12">
</g>
<g
   id="g14">
</g>
<g
   id="g16">
</g>
<g
   id="g18">
</g>
<g
   id="g20">
</g>
<g
   id="g22">
</g>
<g
   id="g24">
</g>
<g
   id="g26">
</g>
<g
   id="g28">
</g>
<g
   id="g30">
</g>
<g
   id="g32">
</g>
</svg>