<?xml version="1.0" encoding="UTF-8" standalone="no"?>
<svg
   xmlns:dc="http://purl.org/dc/elements/1.1/"
   xmlns:cc="http://creativecommons.org/ns#"
   xmlns:rdf="http://www.w3.org/1999/02/22-rdf-syntax-ns#"
   xmlns:svg="http://www.w3.org/2000/svg"
   xmlns="http://www.w3.org/2000/svg"
   xmlns:sodipodi="http://sodipodi.sourceforge.net/DTD/sodipodi-0.dtd"
   xmlns:inkscape="http://www.inkscape.org/namespaces/inkscape"
   inkscape:version="1.0rc1 (09960d6f05, 2020-04-09)"
   sodipodi:docname="folder.svg"
   height="370.89331"
   width="385.10815"
   xml:space="preserve"
   viewBox="0 0 342.29496 329.66041"
   y="0px"
   x="0px"
   id="Capa_1"
   version="1.1"><metadata
   id="metadata27"><rdf:RDF><cc:Work
       rdf:about=""><dc:format>image/svg+xml</dc:format><dc:type
         rdf:resource="http://purl.org/dc/dcmitype/StillImage" /><dc:title></dc:title></cc:Work></rdf:RDF></metadata><defs
   id="defs25" /><sodipodi:namedview
   inkscape:guide-bbox="true"
   showguides="true"
   inkscape:current-layer="g20"
   inkscape:window-maximized="1"
   inkscape:window-y="0"
   inkscape:window-x="0"
   inkscape:cy="223.18404"
   inkscape:cx="163.14502"
   inkscape:zoom="1.665379"
   fit-margin-bottom="0"
   fit-margin-right="0"
   fit-margin-left="0"
   fit-margin-top="0"
   showgrid="false"
   id="namedview23"
   inkscape:window-height="1028"
   inkscape:window-width="1920"
   inkscape:pageshadow="2"
   inkscape:pageopacity="0"
   guidetolerance="10"
   gridtolerance="10"
   objecttolerance="10"
   borderopacity="1"
   bordercolor="#666666"
   pagecolor="#ffffff" />
<g
   transform="translate(-57.8822,-120.81138)"
   id="g20">
	
	
	
	
	
	
	
	<path
   inkscape:connector-curvature="0"
   d="m 248.64421,302.26379 c -1.68542,0.009 -3.31975,0.20611 -4.89338,0.56727 -6.40632,1.46184 -11.76367,5.64012 -14.82495,11.24672 -3.90399,-6.93086 -11.34179,-11.59986 -19.8721,-11.54827 -12.49447,0.086 -22.5645,10.28445 -22.4785,22.78752 0.20638,30.76754 40.30452,53.11656 42.68648,54.40643 0.0774,0.0516 0.11196,0.0686 0.11196,0.0686 0,0 42.27299,-23.34647 42.05801,-55.05131 -0.086,-12.50307 -10.29304,-22.56301 -22.78752,-22.47702 z"
   style="fill:#ffffff;fill-opacity:1;stroke-width:0.859909"
   id="path16" />
	
<g
   style="stroke-width:22.22070331;stroke-miterlimit:4;stroke-dasharray:none;stroke:#f80000;stroke-opacity:1"
   id="g957"><path
     style="fill:none;fill-rule:evenodd;stroke:#ffffff;stroke-width:19.55421891;stroke-linecap:butt;stroke-linejoin:round;stroke-miterlimit:4;stroke-dasharray:none;stroke-opacity:1"
     d="m 189.6582,120.92611 1.04127,100.83034 -112.980832,162.13322 c -21.007137,25.98283 -1.634195,55.72744 23.463382,55.01241 h 255.47709 c 25.09758,0.71504 44.68874,-29.02958 23.68162,-55.01241 L 267.3599,221.75645 268.40116,120.92611"
     id="path937"
     inkscape:connector-curvature="0"
     sodipodi:nodetypes="cccccccc" /></g></g>















</svg>
