<?xml version="1.0" encoding="UTF-8" standalone="no"?>
<!-- Created with Inkscape (http://www.inkscape.org/) -->

<svg
   xmlns:dc="http://purl.org/dc/elements/1.1/"
   xmlns:cc="http://creativecommons.org/ns#"
   xmlns:rdf="http://www.w3.org/1999/02/22-rdf-syntax-ns#"
   xmlns:svg="http://www.w3.org/2000/svg"
   xmlns="http://www.w3.org/2000/svg"
   xmlns:sodipodi="http://sodipodi.sourceforge.net/DTD/sodipodi-0.dtd"
   xmlns:inkscape="http://www.inkscape.org/namespaces/inkscape"
   width="19.816431mm"
   height="19.816273mm"
   viewBox="0 0 19.816431 19.816273"
   version="1.1"
   id="svg4770"
   inkscape:version="0.92.4 (5da689c313, 2019-01-14)"
   sodipodi:docname="instagram.svg">
  <defs
     id="defs4764" />
  <sodipodi:namedview
     id="base"
     pagecolor="#ffffff"
     bordercolor="#666666"
     borderopacity="1.0"
     inkscape:pageopacity="0.0"
     inkscape:pageshadow="2"
     inkscape:zoom="0.35"
     inkscape:cx="-1208.2659"
     inkscape:cy="71.733802"
     inkscape:document-units="mm"
     inkscape:current-layer="layer1"
     showgrid="false"
     fit-margin-top="0"
     fit-margin-left="0"
     fit-margin-right="0"
     fit-margin-bottom="0"
     inkscape:window-width="1920"
     inkscape:window-height="1023"
     inkscape:window-x="0"
     inkscape:window-y="0"
     inkscape:window-maximized="1" />
  <metadata
     id="metadata4767">
    <rdf:RDF>
      <cc:Work
         rdf:about="">
        <dc:format>image/svg+xml</dc:format>
        <dc:type
           rdf:resource="http://purl.org/dc/dcmitype/StillImage" />
        <dc:title></dc:title>
      </cc:Work>
    </rdf:RDF>
  </metadata>
  <g
     inkscape:label="Calque 1"
     inkscape:groupmode="layer"
     id="layer1"
     transform="translate(-226.70488,-147.99663)">
    <g
       id="g1524"
       transform="matrix(0.03933041,0,0,0.03933041,226.54445,147.8362)"
       style="fill:#ffffff">
      <path
         id="path1507"
         d="m 256,49.471 c 67.266,0 75.233,0.257 101.8,1.469 24.562,1.121 37.9,5.224 46.778,8.674 a 78.052,78.052 0 0 1 28.966,18.845 78.052,78.052 0 0 1 18.845,28.966 c 3.45,8.877 7.554,22.216 8.674,46.778 1.212,26.565 1.469,34.532 1.469,101.8 0,67.268 -0.257,75.233 -1.469,101.8 -1.121,24.562 -5.225,37.9 -8.674,46.778 a 83.427,83.427 0 0 1 -47.811,47.811 c -8.877,3.45 -22.216,7.554 -46.778,8.674 -26.56,1.212 -34.527,1.469 -101.8,1.469 -67.273,0 -75.237,-0.257 -101.8,-1.469 -24.562,-1.121 -37.9,-5.225 -46.778,-8.674 A 78.051,78.051 0 0 1 78.456,433.547 78.053,78.053 0 0 1 59.611,404.581 c -3.45,-8.877 -7.554,-22.216 -8.674,-46.778 -1.212,-26.564 -1.469,-34.532 -1.469,-101.8 0,-67.268 0.257,-75.233 1.469,-101.8 1.121,-24.562 5.224,-37.9 8.674,-46.778 A 78.052,78.052 0 0 1 78.458,78.458 78.053,78.053 0 0 1 107.424,59.613 c 8.877,-3.45 22.216,-7.554 46.778,-8.674 26.565,-1.212 34.532,-1.469 101.8,-1.469 m 0,-45.391 c -68.418,0 -77,0.29 -103.866,1.516 -26.815,1.224 -45.127,5.482 -61.151,11.71 A 123.488,123.488 0 0 0 46.365,46.362 123.488,123.488 0 0 0 17.3,90.982 C 11.077,107.007 6.819,125.319 5.6,152.134 4.369,179 4.079,187.582 4.079,256 c 0,68.418 0.29,77 1.521,103.866 1.224,26.815 5.482,45.127 11.71,61.151 a 123.489,123.489 0 0 0 29.057,44.62 123.486,123.486 0 0 0 44.62,29.057 c 16.025,6.228 34.337,10.486 61.151,11.71 26.87,1.226 35.449,1.516 103.866,1.516 68.417,0 77,-0.29 103.866,-1.516 26.815,-1.224 45.127,-5.482 61.151,-11.71 a 128.817,128.817 0 0 0 73.677,-73.677 c 6.228,-16.025 10.486,-34.337 11.71,-61.151 1.226,-26.87 1.516,-35.449 1.516,-103.866 0,-68.417 -0.29,-77 -1.516,-103.866 -1.224,-26.815 -5.482,-45.127 -11.71,-61.151 A 123.486,123.486 0 0 0 465.641,46.363 123.487,123.487 0 0 0 421.018,17.3 C 404.993,11.077 386.681,6.819 359.866,5.6 333,4.369 324.418,4.079 256,4.079 v 0 z"
         style="fill:#ffffff"
         inkscape:connector-curvature="0" />
      <path
         id="path1509"
         d="M 256,126.635 A 129.365,129.365 0 1 0 385.365,256 129.365,129.365 0 0 0 256,126.635 Z m 0,213.338 A 83.973,83.973 0 1 1 339.974,256 83.974,83.974 0 0 1 256,339.973 Z"
         style="fill:#ffffff"
         inkscape:connector-curvature="0" />
      <circle
         id="circle1511"
         r="30.23"
         cy="121.524"
         cx="390.47601"
         style="fill:#ffffff" />
    </g>
  </g>
</svg>
